<svg xmlns="http://www.w3.org/2000/svg" version="1.1" xmlns:xlink="http://www.w3.org/1999/xlink" xmlns:svgjs="http://svgjs.com/svgjs" width="1440" height="720" preserveAspectRatio="none" viewBox="0 0 1440 720"><g mask="url(&quot;#SvgjsMask1001&quot;)" fill="none"><rect width="1440" height="720" x="0" y="0" fill="rgba(8, 47, 73, 1)"></rect><path d="M1440 0L1377.11 0L1440 243.58z" fill="rgba(255, 255, 255, .1)"></path><path d="M1377.11 0L1440 243.58L1440 321.36L707.7199999999999 0z" fill="rgba(255, 255, 255, .075)"></path><path d="M707.72 0L1440 321.36L1440 452.99L513.95 0z" fill="rgba(255, 255, 255, .05)"></path><path d="M513.95 0L1440 452.99L1440 551.69L278.61 0z" fill="rgba(255, 255, 255, .025)"></path><path d="M0 720L201.73 720L0 527.92z" fill="rgba(0, 0, 0, .1)"></path><path d="M0 527.92L201.73 720L513.79 720L0 250.12999999999994z" fill="rgba(0, 0, 0, .075)"></path><path d="M0 250.13L513.79 720L1024.79 720L0 141.98z" fill="rgba(0, 0, 0, .05)"></path><path d="M0 141.98000000000002L1024.79 720L1284.03 720L0 41.19000000000001z" fill="rgba(0, 0, 0, .025)"></path></g><defs><mask id="SvgjsMask1001"><rect width="1440" height="720" fill="#ffffff"></rect></mask></defs></svg>