<svg xmlns="http://www.w3.org/2000/svg" version="1.1" xmlns:xlink="http://www.w3.org/1999/xlink" xmlns:svgjs="http://svgjs.com/svgjs" width="1600" height="770" preserveAspectRatio="none" viewBox="0 0 1600 770"><g mask="url(&quot;#SvgjsMask1033&quot;)" fill="none"><rect width="1600" height="770" x="0" y="0" fill="rgba(202, 202, 202, 1)"></rect><path d="M0,531.729C113.758,552.96,238.517,584.63,340.125,529.245C443.015,473.161,472.036,343.793,530.789,242.403C596.588,128.853,704.732,29.784,705.597,-101.45C706.495,-237.693,640.082,-376.708,535.443,-463.964C435.239,-547.522,287.504,-516.074,162.712,-554.148C36.07,-592.786,-70.925,-705.336,-202.325,-689.056C-338.511,-672.184,-477.149,-589.604,-539.166,-467.19C-599.762,-347.583,-503.017,-207.531,-513.977,-73.899C-523.943,47.615,-654.803,165.102,-599.956,273.991C-544.601,383.889,-380.334,367.315,-267.273,415.885C-176.213,455.004,-97.425,513.547,0,531.729" fill="#989898"></path><path d="M1600 1368.359C1728.977 1375.066 1883.688 1447.1280000000002 1979.525 1360.5529999999999 2079.07 1270.629 1992.942 1096.561 2039.959 970.923 2081.827 859.043 2229.544 798.095 2234.674 678.748 2239.862 558.033 2160.64 441.303 2065.949 366.253 1976.968 295.728 1847.25 329.379 1741.554 287.91 1620.644 240.47199999999998 1534.287 91.452 1405.347 107.07299999999998 1278.401 122.45299999999997 1186.22 247.61 1129.249 362.092 1078.008 465.059 1123.133 585.304 1110.472 699.617 1098.371 808.869 1033.368 910.73 1056.5819999999999 1018.171 1082.292 1137.166 1142.689 1256.412 1245.022 1322.357 1347.3899999999999 1388.324 1478.382 1362.0349999999999 1600 1368.359" fill="#fdfdfd"></path></g><defs><mask id="SvgjsMask1033"><rect width="1600" height="770" fill="#ffffff"></rect></mask></defs></svg>